<svg
   width="350"
   height="130"
   viewBox="0 0 350 130"
   fill="none"
   xmlns="http://www.w3.org/2000/svg">
  <path
     d="m 12.844645,64.885853 c -0.730361,0.006 -1.460722,0.02683 -2.176177,0.05664 -2.8677845,0.119243 -5.5835345,0.366671 -7.9296325,0.366671 a 2.2357985,2.2357985 0 0 0 -2.217912,1.979427 c 0,0 -0.289164,2.468322 -0.432255,5.523913 -0.14011,3.058572 -0.19675,6.641812 0.476971,9.449975 0.828736,3.437168 2.298401,7.094934 5.079734,9.828571 2.396776,2.361003 5.5507425,3.636898 8.5765235,4.250998 4.17051,0.843641 8.975986,1.067221 13.265738,-0.822774 1.606794,-0.706512 2.638241,-1.881052 3.571314,-2.927406 0.933074,1.043373 1.967504,2.220894 3.568336,2.927406 4.292732,1.889995 9.098208,1.669396 13.268718,0.822774 3.025781,-0.6141 6.179747,-1.889995 8.576523,-4.250998 2.781333,-2.736618 4.250998,-6.391403 5.079734,-9.828571 0.673721,-2.808163 0.617081,-6.391403 0.476971,-9.449975 -0.143092,-3.055591 -0.432255,-5.523913 -0.432255,-5.523913 a 2.2357985,2.2357985 0 0 0 -2.217912,-1.979427 c -4.689215,0 -10.865981,-0.986732 -16.774451,0.02981 -2.450435,0.417349 -5.440443,1.5114 -7.959442,2.504094 -2.003275,0.787001 -2.990009,1.240123 -3.586222,1.505438 -0.596212,-0.265315 -1.579963,-0.718437 -3.586219,-1.508419 -2.519,-0.989713 -5.509008,-2.080783 -7.959443,-2.504094 a 36.971164,36.971164 0 0 0 -6.665661,-0.453122 z m 4.101945,11.029939 c 1.102994,0.003 2.271571,0.149054 3.463997,0.444179 1.907882,0.468027 3.541505,1.210312 4.772685,2.223874 0.61708,0.506781 1.14771,1.085108 1.502457,1.833355 0.357727,0.748247 0.494856,1.749885 0.16992,2.650167 -0.649872,1.797582 -2.334173,2.43553 -3.946929,2.712769 -1.612756,0.277239 -3.458036,0.178863 -5.368898,-0.292145 -1.907881,-0.468027 -3.544486,-1.210312 -4.775666,-2.223874 A 5.3688975,5.3688975 0 0 1 11.2617,81.430762 3.5295806,3.5295806 0 0 1 11.09476,78.780596 c 0.649872,-1.797582 2.334174,-2.43553 3.94693,-2.712769 0.605156,-0.104337 1.243104,-0.152035 1.9049,-0.149053 z m 27.703034,0.06558 c 0.900282,-0.02087 1.764791,0.04472 2.563716,0.208674 1.606793,0.327918 3.273208,1.0076 3.869422,2.823069 0.298106,0.909224 0.134147,1.907881 -0.244447,2.644204 -0.378595,0.736323 -0.92413,1.299744 -1.556116,1.788639 -1.260991,0.977789 -2.915481,1.669396 -4.838268,2.083764 -1.919806,0.411387 -3.771047,0.453122 -5.371879,0.128186 -1.603812,-0.327917 -3.270228,-1.0076 -3.866441,-2.823068 -0.298106,-0.909225 -0.134147,-1.907882 0.244448,-2.644205 0.378595,-0.736323 0.930092,-1.299744 1.559097,-1.788639 1.26099,-0.977789 2.909519,-1.669396 4.832305,-2.083764 0.962884,-0.205693 1.904901,-0.315993 2.808163,-0.33686 z"
     fill="#8B5CF6" />
  <path
     d="m 104.2598,79.109158 -6.497557,0.173653 q -0.101316,-0.694617 -0.549914,-1.230048 -0.448599,-0.549906 -1.172149,-0.8538 -0.709095,-0.318366 -1.649734,-0.318366 -1.230034,0 -2.09831,0.492019 -0.853799,0.49202 -0.839322,1.331349 -0.01356,0.651204 0.520961,1.128751 0.549893,0.47755 1.953607,0.766975 l 4.28346,0.810385 q 3.328388,0.636731 4.949158,2.112793 1.63524,1.476061 1.64972,3.90722 -0.0136,2.286446 -1.3603,3.979574 -1.33134,1.693129 -3.646741,2.633754 -2.315377,0.926157 -5.296461,0.926157 -4.761002,0 -7.510532,-1.95361 -2.735043,-1.96808 -3.125777,-5.26751 l 6.989581,-0.173655 q 0.231533,1.21558 1.201124,1.852312 0.96956,0.636731 2.474557,0.636731 1.360305,0 2.214093,-0.506491 0.853799,-0.506491 0.868265,-1.34582 -0.01356,-0.752502 -0.665665,-1.201108 -0.651209,-0.463078 -2.040446,-0.723559 l -3.878281,-0.73803 q -3.342843,-0.607789 -4.978078,-2.243032 -1.635235,-1.649715 -1.620769,-4.196644 -0.01356,-2.228561 1.186636,-3.805921 1.201114,-1.591831 3.415206,-2.431159 2.214071,-0.839328 5.224088,-0.839328 4.515003,0 7.11982,1.895724 2.60481,1.881254 2.87976,5.180684 z m 3.04536,15.440753 V 72.322175 h 7.07641 v 22.227736 z m 3.54544,-24.81808 q -1.49053,0 -2.56139,-0.98404 -1.07087,-0.99851 -1.07087,-2.402216 0,-1.389233 1.07087,-2.373273 1.07086,-0.998511 2.56139,-0.998511 1.50501,0 2.56142,0.998511 1.07087,0.98404 1.07087,2.373273 0,1.403706 -1.07087,2.402216 -1.05641,0.98404 -2.56142,0.98404 z m 15.15775,25.136445 q -2.46009,0 -4.47158,-1.273464 -2.01149,-1.273464 -3.21262,-3.820391 -1.20109,-2.546929 -1.20109,-6.323908 0,-3.92169 1.24451,-6.454149 1.24454,-2.532456 3.25602,-3.748035 2.02597,-1.215579 4.35583,-1.215579 1.75102,0 2.99553,0.60779 1.24451,0.593318 2.05491,1.533946 0.81039,0.940625 1.23005,1.95361 h 0.14467 V 64.912928 h 7.0764 v 29.636983 h -7.00406 v -3.603325 h -0.21707 q -0.4486,1.027453 -1.27345,1.924666 -0.82487,0.897213 -2.06938,1.447119 -1.23005,0.549905 -2.90872,0.549905 z m 2.46011,-5.513521 q 1.28794,0 2.19962,-0.72356 0.91169,-0.738029 1.40369,-2.069379 0.49203,-1.331349 0.49203,-3.125775 0,-1.82337 -0.49203,-3.140247 -0.47755,-1.316877 -1.40369,-2.025965 -0.91168,-0.709088 -2.19962,-0.709088 -1.31687,0 -2.22857,0.723559 -0.91168,0.72356 -1.38923,2.040438 -0.46306,1.316877 -0.46306,3.111303 0,1.794426 0.47755,3.125775 0.47754,1.33135 1.37474,2.069379 0.9117,0.72356 2.22857,0.72356 z m 24.91138,5.614819 q -3.48756,0 -6.02001,-1.374762 -2.51799,-1.389233 -3.87828,-3.950633 -1.34582,-2.57587 -1.34582,-6.12131 0,-3.444142 1.36029,-6.020012 1.36031,-2.590342 3.83486,-4.022988 2.47458,-1.447119 5.83189,-1.447119 2.37327,0 4.34136,0.738031 1.96807,0.738029 3.40073,2.185148 1.43264,1.447119 2.22855,3.574383 0.79592,2.112792 0.79592,4.847845 v 1.765484 h -19.31902 v -4.109817 h 12.73464 q -0.0153,-1.12875 -0.53544,-2.011493 -0.52096,-0.882742 -1.43265,-1.374762 -0.89721,-0.506491 -2.06938,-0.506491 -1.18664,0 -2.12726,0.535434 -0.94063,0.520962 -1.49052,1.432646 -0.54993,0.897214 -0.57885,2.040436 v 4.182172 q 0,1.360292 0.53543,2.387745 0.53544,1.012982 1.51946,1.57736 0.98405,0.564375 2.34434,0.564375 0.94062,0 1.7076,-0.26048 0.76697,-0.260482 1.31689,-0.766975 0.54989,-0.506489 0.82484,-1.24452 l 6.49757,0.188125 q -0.40519,2.185148 -1.77995,3.805922 -1.36031,1.606299 -3.57438,2.503513 -2.2141,0.882743 -5.12281,0.882743 z m 19.58597,-6.251552 0.0289,-8.436697 h 0.98405 l 6.25156,-7.95915 h 8.01704 l -9.29051,11.403291 h -1.86678 z m -6.38179,5.831889 V 64.912928 h 7.07641 v 29.636983 z m 13.80552,0 -5.81743,-9.232615 4.65972,-5.021502 9.33392,14.254117 z m 9.42717,0 V 72.322175 h 7.07639 v 22.227736 z m 3.54543,-24.81808 q -1.49053,0 -2.5614,-0.98404 -1.07087,-0.99851 -1.07087,-2.402216 0,-1.389233 1.07087,-2.373273 1.07087,-0.998511 2.5614,-0.998511 1.505,0 2.56139,0.998511 1.07087,0.98404 1.07087,2.373273 0,1.403706 -1.07087,2.402216 -1.05639,0.98404 -2.56139,0.98404 z m 17.41525,25.237743 q -3.5165,0 -6.03447,-1.447118 -2.50351,-1.447119 -3.84934,-4.022989 -1.34582,-2.590341 -1.34582,-5.991069 0,-3.4152 1.34582,-5.99107 1.36029,-2.590342 3.8638,-4.037459 2.51799,-1.447119 6.00554,-1.447119 3.08236,0 5.3688,1.114281 2.30094,1.11428 3.58887,3.154719 1.30242,2.025964 1.37476,4.761018 h -6.61334 q -0.20259,-1.707599 -1.15769,-2.67717 -0.94062,-0.969568 -2.46009,-0.969568 -1.23006,0 -2.15622,0.694616 -0.92615,0.680147 -1.44712,2.025965 -0.50648,1.33135 -0.50648,3.29943 0,1.968081 0.50648,3.328371 0.52097,1.345821 1.44712,2.040439 0.92616,0.680145 2.15622,0.680145 0.98405,0 1.73654,-0.419665 0.76697,-0.419664 1.259,-1.23005 0.49202,-0.824858 0.62224,-1.997023 h 6.61334 q -0.10132,2.749524 -1.37476,4.804432 -1.259,2.054909 -3.54545,3.198131 -2.27197,1.128753 -5.39775,1.128753 z m 19.35444,-6.251552 0.0291,-8.436697 h 0.98403 l 6.25155,-7.95915 h 8.01704 l -9.29051,11.403291 h -1.86677 z m -6.38178,5.831889 V 64.912928 h 7.0764 v 29.636983 z m 13.8055,0 -5.81741,-9.232615 4.65973,-5.021502 9.33391,14.254117 z m 9.42717,0 V 72.322175 h 7.07639 v 22.227736 z m 3.54545,-24.81808 q -1.49053,0 -2.5614,-0.98404 -1.07089,-0.99851 -1.07089,-2.402216 0,-1.389233 1.07089,-2.373273 1.07087,-0.998511 2.5614,-0.998511 1.50499,0 2.5614,0.998511 1.07085,0.98404 1.07085,2.373273 0,1.403706 -1.07085,2.402216 -1.05641,0.98404 -2.5614,0.98404 z m 17.41525,25.237743 q -3.5165,0 -6.03449,-1.447118 -2.50351,-1.447119 -3.84934,-4.022989 -1.3458,-2.590341 -1.3458,-5.991069 0,-3.4152 1.3458,-5.99107 1.36031,-2.590342 3.86382,-4.037459 2.51799,-1.447119 6.00553,-1.447119 3.08238,0 5.36883,1.114281 2.30091,1.11428 3.58884,3.154719 1.30241,2.025964 1.37477,4.761018 h -6.61332 q -0.20261,-1.707599 -1.1577,-2.67717 -0.94064,-0.969568 -2.46012,-0.969568 -1.23004,0 -2.1562,0.694616 -0.92616,0.680147 -1.44712,2.025965 -0.50648,1.33135 -0.50648,3.29943 0,1.968081 0.50648,3.328371 0.52096,1.345821 1.44712,2.040439 0.92616,0.680145 2.1562,0.680145 0.98405,0 1.73655,-0.419665 0.76698,-0.419664 1.259,-1.23005 0.49201,-0.824858 0.62227,-1.997023 h 6.61332 q -0.10132,2.749524 -1.37477,4.804432 -1.25899,2.054909 -3.54544,3.198131 -2.27196,1.128753 -5.39775,1.128753 z m 23.3485,0 q -3.50203,0 -6.02002,-1.432647 -2.50351,-1.447118 -3.86382,-4.02299 -1.34582,-2.590341 -1.34582,-6.005539 0,-3.429671 1.34582,-6.005541 1.36031,-2.590342 3.86382,-4.022988 2.51799,-1.447119 6.02002,-1.447119 3.50201,0 6.00553,1.447119 2.51798,1.432646 3.86381,4.022988 1.36028,2.57587 1.36028,6.005541 0,3.415198 -1.36028,6.005539 -1.34583,2.575872 -3.86381,4.02299 -2.50352,1.432647 -6.00553,1.432647 z m 0.0435,-5.339868 q 1.27346,0 2.15622,-0.781442 0.88275,-0.781444 1.34581,-2.170677 0.47755,-1.389235 0.47755,-3.212602 0,-1.852314 -0.47755,-3.241545 -0.46306,-1.389235 -1.34581,-2.170677 -0.88276,-0.781445 -2.15622,-0.781445 -1.31686,0 -2.22856,0.781445 -0.89721,0.781442 -1.37475,2.170677 -0.46307,1.389231 -0.46307,3.241545 0,1.823367 0.46307,3.212602 0.47754,1.389233 1.37475,2.170677 0.9117,0.781442 2.22856,0.781442 z m 20.9173,-7.756551 v 12.676756 h -7.0764 V 72.322175 h 6.72909 v 4.080873 h 0.24602 q 0.73801,-2.040438 2.51798,-3.198132 1.77996,-1.172166 4.24006,-1.172166 2.34433,0 4.0664,1.056396 1.73653,1.041924 2.69163,2.923179 0.96958,1.866783 0.9551,4.370297 v 14.167289 h -7.0764 V 81.771855 q 0.0153,-1.852311 -0.94064,-2.894236 -0.94062,-1.041924 -2.61927,-1.041924 -1.11429,0 -1.96808,0.492019 -0.83933,0.47755 -1.30241,1.374762 -0.44861,0.897215 -0.46308,2.170679 z m 37.19742,-2.763997 -6.49757,0.173653 q -0.10132,-0.694617 -0.5499,-1.230048 -0.44862,-0.549906 -1.17217,-0.8538 -0.70909,-0.318366 -1.64971,-0.318366 -1.23005,0 -2.09832,0.492019 -0.8538,0.49202 -0.83933,1.331349 -0.0153,0.651204 0.52096,1.128751 0.54991,0.47755 1.9536,0.766975 l 4.28349,0.810385 q 3.32836,0.636731 4.94913,2.112793 1.63526,1.476061 1.64971,3.90722 -0.0153,2.286446 -1.36029,3.979574 -1.33134,1.693129 -3.64672,2.633754 -2.3154,0.926157 -5.29646,0.926157 -4.76102,0 -7.51055,-1.95361 -2.73504,-1.96808 -3.12578,-5.26751 l 6.98959,-0.173655 q 0.23155,1.21558 1.20112,1.852312 0.96956,0.636731 2.47455,0.636731 1.36031,0 2.2141,-0.506491 0.85379,-0.506491 0.86828,-1.34582 -0.0153,-0.752502 -0.66568,-1.201108 -0.6512,-0.463078 -2.04044,-0.723559 l -3.87829,-0.73803 q -3.34283,-0.607789 -4.97807,-2.243032 -1.63524,-1.649715 -1.62078,-4.196644 -0.0153,-2.228561 1.18664,-3.805921 1.20111,-1.591831 3.4152,-2.431159 2.2141,-0.839328 5.22409,-0.839328 4.515,0 7.11983,1.895724 2.60482,1.881254 2.87977,5.180684 z"
     fill="#0F172A"
     aria-label="sidekickicons" />
</svg>
